<svg id="Capa_1" data-name="Capa 1" xmlns="http://www.w3.org/2000/svg" xmlns:xlink="http://www.w3.org/1999/xlink" viewBox="0 0 412.66 217.7"><defs><style>.cls-1{fill:url(#Degradado_sin_nombre_15);}.cls-2{fill:url(#Degradado_sin_nombre_3);}.cls-3{fill:url(#Degradado_sin_nombre_3-2);}</style><linearGradient id="Degradado_sin_nombre_15" x1="1288.28" y1="1200.93" x2="1700.93" y2="1200.93" gradientTransform="matrix(1, 0, 0, -1, -1288.28, 1309.78)" gradientUnits="userSpaceOnUse"><stop offset="0" stop-color="#0beebf"/><stop offset="1" stop-color="#4c63e3"/></linearGradient><linearGradient id="Degradado_sin_nombre_3" x1="1488.22" y1="1189.33" x2="1526.4" y2="1214.3" gradientTransform="matrix(1, 0, 0, -1, -1288.28, 1309.78)" gradientUnits="userSpaceOnUse"><stop offset="0" stop-opacity="0.7"/><stop offset="1" stop-opacity="0"/></linearGradient><linearGradient id="Degradado_sin_nombre_3-2" x1="1502.86" y1="1162.9" x2="1467.59" y2="1136.49" xlink:href="#Degradado_sin_nombre_3"/></defs><path class="cls-1" d="M261.79,217.7a47.38,47.38,0,0,1-40-21.76l-15.51-24-15.52,24a47.56,47.56,0,0,1-79.91,0L3,28.89A18.72,18.72,0,0,1,18.72,0H126.87a22.05,22.05,0,0,1,18.58,10.11l60.88,94.25L267.2,10.11A22.05,22.05,0,0,1,285.78,0H393.93a18.73,18.73,0,0,1,15.75,28.85L301.76,195.91a47.38,47.38,0,0,1-40,21.76Zm-33.64-79.56,24.48,37.91a10.91,10.91,0,0,0,18.32,0L361,36.67H293.7ZM51.68,36.67l90,139.38a10.91,10.91,0,0,0,18.32,0l24.48-37.91L119,36.67Z"/><polygon class="cls-2" points="228.15 138.14 206.32 104.36 233.4 62.44 251.94 101.3 228.15 138.14"/><polygon class="cls-3" points="206.32 171.93 190.81 195.94 165.1 168.18 184.5 138.14 206.32 171.93"/></svg>