<svg width="103" height="31" viewBox="0 0 103 31" fill="none" xmlns="http://www.w3.org/2000/svg">
<g clip-path="url(#clip0_694_33571)">
<path d="M10.981 0.777973C9.05236 0.927565 9.18287 3.01626 9.68836 3.55574C8.25181 4.54179 4.79527 6.91335 2.46143 8.51103C0.441742 9.89361 -0.306725 13.3569 0.404026 15.6186C1.09418 17.8148 4.54178 19.4496 6.3757 19.9457C6.3757 19.9457 4.26119 21.1462 2.40111 22.6084C0.541015 24.0707 -0.226594 25.9886 1.11558 28.1407C2.45775 30.2929 4.62708 30.1404 6.37279 29.3629C8.1185 28.5854 11.6974 25.9252 13.7962 24.4685C15.5373 23.1513 15.9878 20.2798 15.1864 17.8507C14.5365 15.8807 10.9441 14.0194 9.15588 13.3569C9.88876 12.8307 11.8156 11.4724 13.5013 10.2603C14.0792 11.8868 15.9997 11.7589 16.5854 10.8894C17.3168 9.29368 18.8485 5.66957 19.6209 3.88246C19.9584 2.52199 19.114 1.78531 18.2626 1.63069C17.0424 1.4091 13.9352 1.12187 10.981 0.777973Z" fill="#696CFF"/>
<path d="M9.69182 3.55683C9.07251 2.81819 9.20876 0.865576 11.0154 0.776566C12.0028 0.891505 13.0111 1.00068 13.9603 1.10346C15.8511 1.30818 17.5072 1.48749 18.295 1.6363C19.1757 1.80268 19.9586 2.613 19.6198 3.90402C19.3478 4.53339 18.9846 5.37805 18.5994 6.2739C17.8908 7.92186 17.1077 9.7431 16.6807 10.7162C16.2628 11.6687 14.2223 12.0667 13.496 10.2619C11.8103 11.4739 9.92313 12.8293 9.19025 13.3555C9.06589 13.3019 8.83913 13.223 8.55003 13.1223C7.58883 12.7875 5.93862 12.2128 5.07196 11.5351C3.49594 10.0788 4.22767 7.85136 4.79051 6.91965C6.48273 5.76121 7.54251 5.03314 8.54494 4.3445C8.92505 4.08338 9.29687 3.82793 9.69182 3.55683Z" fill="white" fill-opacity="0.2"/>
<path d="M6.37908 19.946C7.71767 20.4046 10.3829 21.5185 10.942 22.264C11.6409 23.1958 12.0571 24.1691 10.6372 26.6651C10.3981 26.8266 10.1751 26.9776 9.96596 27.1192C8.07083 28.4024 7.31199 28.9162 6.04501 29.5193C4.93999 29.9532 2.40554 30.4856 0.969118 27.8874C-0.406602 25.399 1.17733 23.5768 2.39847 22.6146L4.42509 21.1487L5.39468 20.5355L6.37908 19.946Z" fill="white" fill-opacity="0.2"/>
</g>
<path d="M35.476 25.78C34.468 25.78 33.4973 25.6167 32.564 25.29C31.6307 24.954 30.842 24.4313 30.198 23.722C29.554 23.0033 29.1433 22.0747 28.966 20.936H32.508C32.6293 21.4493 32.8487 21.8553 33.166 22.154C33.4927 22.4527 33.8613 22.6673 34.272 22.798C34.6827 22.9193 35.0747 22.98 35.448 22.98C36.232 22.98 36.862 22.8587 37.338 22.616C37.8233 22.364 38.066 21.9813 38.066 21.468C38.066 21.076 37.9213 20.7633 37.632 20.53C37.352 20.2967 36.8853 20.1193 36.232 19.998L33.684 19.466C32.4053 19.1953 31.3787 18.738 30.604 18.094C29.8293 17.4407 29.4327 16.5167 29.414 15.322C29.414 14.454 29.6427 13.6747 30.1 12.984C30.5667 12.2933 31.2527 11.7473 32.158 11.346C33.0633 10.9447 34.174 10.744 35.49 10.744C37.2727 10.744 38.696 11.136 39.76 11.92C40.8333 12.704 41.3793 13.81 41.398 15.238H37.982C37.8793 14.678 37.5993 14.2487 37.142 13.95C36.694 13.642 36.1293 13.488 35.448 13.488C34.7387 13.488 34.1553 13.614 33.698 13.866C33.2407 14.118 33.012 14.5007 33.012 15.014C33.012 15.3967 33.1987 15.7 33.572 15.924C33.9453 16.1387 34.524 16.3253 35.308 16.484L37.66 17.016C38.472 17.212 39.13 17.4827 39.634 17.828C40.1473 18.164 40.544 18.5327 40.824 18.934C41.104 19.3353 41.2953 19.7413 41.398 20.152C41.51 20.5533 41.566 20.9173 41.566 21.244C41.566 22.2053 41.3093 23.0267 40.796 23.708C40.2827 24.38 39.5687 24.8933 38.654 25.248C37.7393 25.6027 36.68 25.78 35.476 25.78ZM44.5836 25.5V11.024H48.6016V13.068C48.8256 12.7133 49.1149 12.3727 49.4696 12.046C49.8336 11.71 50.2909 11.4347 50.8416 11.22C51.3923 11.0053 52.0456 10.898 52.8016 10.898C53.6883 10.898 54.5143 11.0707 55.2796 11.416C56.0543 11.7613 56.6796 12.3073 57.1556 13.054C57.6316 13.7913 57.8696 14.7573 57.8696 15.952V25.5H53.7816V16.456C53.7816 15.672 53.5483 15.084 53.0816 14.692C52.6149 14.3 52.0456 14.104 51.3736 14.104C50.9256 14.104 50.4916 14.1833 50.0716 14.342C49.6609 14.5007 49.3249 14.7387 49.0636 15.056C48.8023 15.3733 48.6716 15.7653 48.6716 16.232V25.5H44.5836ZM64.6912 19.2C64.6819 19.9373 64.7986 20.5813 65.0412 21.132C65.2839 21.6733 65.6339 22.0933 66.0912 22.392C66.5579 22.6813 67.1179 22.826 67.7712 22.826C68.4712 22.826 69.0826 22.6767 69.6052 22.378C70.1372 22.0793 70.5059 21.5893 70.7112 20.908H74.3933C74.2346 21.9347 73.8239 22.812 73.1612 23.54C72.5079 24.268 71.7146 24.8233 70.7812 25.206C69.8479 25.5887 68.8772 25.78 67.8692 25.78C66.4412 25.78 65.1812 25.4813 64.0892 24.884C63.0066 24.2773 62.1619 23.4233 61.5552 22.322C60.9486 21.2207 60.6452 19.9233 60.6452 18.43C60.6452 16.9833 60.9206 15.6813 61.4712 14.524C62.0219 13.3573 62.8199 12.438 63.8652 11.766C64.9199 11.0847 66.1846 10.744 67.6592 10.744C69.1339 10.744 70.3706 11.0567 71.3693 11.682C72.3772 12.298 73.1332 13.1613 73.6373 14.272C74.1506 15.3733 74.4072 16.6473 74.4072 18.094V19.2H64.6912ZM64.6772 16.764H70.5852C70.5852 16.1853 70.4779 15.6533 70.2632 15.168C70.0486 14.6827 69.7219 14.3 69.2832 14.02C68.8539 13.74 68.3126 13.6 67.6592 13.6C67.0246 13.6 66.4832 13.754 66.0352 14.062C65.5966 14.3607 65.2606 14.7527 65.0272 15.238C64.7939 15.7233 64.6772 16.232 64.6772 16.764ZM81.5133 25.78C80.5893 25.78 79.7586 25.6073 79.0213 25.262C78.2839 24.9167 77.7006 24.4173 77.2713 23.764C76.8419 23.1013 76.6273 22.2987 76.6273 21.356C76.6273 19.7693 77.2199 18.5653 78.4053 17.744C79.5906 16.9133 81.4619 16.484 84.0193 16.456L85.8253 16.428V15.56C85.8253 14.8973 85.6293 14.3887 85.2373 14.034C84.8546 13.67 84.2573 13.4927 83.4453 13.502C82.8479 13.5113 82.2786 13.6513 81.7373 13.922C81.2053 14.1927 80.8413 14.664 80.6453 15.336H77.2433C77.2993 14.2907 77.6026 13.432 78.1533 12.76C78.7039 12.0787 79.4506 11.5747 80.3933 11.248C81.3453 10.912 82.4233 10.744 83.6273 10.744C85.1113 10.744 86.3013 10.9307 87.1973 11.304C88.0933 11.668 88.7419 12.1953 89.1433 12.886C89.5446 13.5673 89.7453 14.3793 89.7453 15.322V25.5H86.3293L85.9933 23.008C85.4986 24.0533 84.8779 24.7767 84.1313 25.178C83.3939 25.5793 82.5213 25.78 81.5133 25.78ZM82.8853 23.092C83.2586 23.092 83.6179 23.0267 83.9633 22.896C84.3179 22.756 84.6306 22.574 84.9013 22.35C85.1813 22.1167 85.4053 21.8553 85.5733 21.566C85.7413 21.2767 85.8253 20.978 85.8253 20.67V18.528L84.3553 18.556C83.6739 18.5653 83.0393 18.6493 82.4513 18.808C81.8633 18.9573 81.3873 19.2047 81.0233 19.55C80.6686 19.8953 80.4913 20.362 80.4913 20.95C80.4913 21.622 80.7246 22.1493 81.1913 22.532C81.6579 22.9053 82.2226 23.092 82.8853 23.092ZM101.705 13.866H98.4852L98.5132 21.58C98.5132 21.9347 98.5552 22.2007 98.6392 22.378C98.7325 22.546 98.8725 22.658 99.0592 22.714C99.2552 22.7607 99.5025 22.784 99.8012 22.784H101.747V25.304C101.56 25.388 101.266 25.4673 100.865 25.542C100.473 25.6167 99.9225 25.654 99.2132 25.654C97.9438 25.654 96.9592 25.4907 96.2592 25.164C95.5685 24.8373 95.0878 24.38 94.8172 23.792C94.5465 23.204 94.4112 22.5227 94.4112 21.748V13.866H92.0592V11.024H94.5512L95.5732 6.65601H98.4852V11.01H101.705V13.866Z" fill="#22303E" fill-opacity="0.9"/>
<defs>
<clipPath id="clip0_694_33571">
<rect width="20" height="29.4545" fill="white" transform="translate(0 0.772736)"/>
</clipPath>
</defs>
</svg>
